# xmcd CD database file
#
# Track frame offsets:
#	150
#	13346
#	34678
#	45158
#	57329
#	76124
#	99243
#	112100
#	125560
#	138201
#	150736
#	162235
#	176252
#	189438
#	201907
#	214885
#	229607
#	247728
#	262432
#	274746
#	288159
#	300851
#	312824
#
# Disc length: 4369 seconds
#
# Revision: 0
# Processed by: cddbd v1.5.2PL0 Copyright (c) Steve Scherf et al.
# Submitted via: CDex 1.51
#
DISCID=31110f17
DTITLE=Muddy Waters - The Chess Box (3) 1960-1972
DYEAR=1900
DGENRE=Blues
TTITLE0=I Feel So Good (Live)
TTITLE1=You Shook Me
TTITLE2=You Need Love
TTITLE3=Twenty Four Hours
TTITLE4=Elevate Me Mama (Alt. Take)
TTITLE5=So Glad I'm Living
TTITLE6=Myu Love Strirkes Like Lightning
TTITLE7=You Don't Have To Go (Alt. Take)
TTITLE8=Things That I Used To Do
TTITLE9=My Home Is In The Delta
TTITLE10=Good Morning Little Schoolgirl
TTITLE11=The Same Thing
TTITLE12=Your Can't Lose What You Ain't Never Had
TTITLE13=Shot Dress Woman
TTITLE14=Making Friends
TTITLE15=Black Night (Hornless Alt. Mix)
TTITLE16=Bird Nest On The Ground
TTITLE17=Country Boy (Live)
TTITLE18=Sugar Sweet (Alt. 'Fathers And Sons' Take)
TTITLE19=All Aboard (Alt. 'Fathers And Sons' Take)
TTITLE20=Going Down Slow (Live)
TTITLE21=Who's Gonna Be Your Sweet Man When I'm Gone (Original Hornless London Mix)
TTITLE22=Can't Get No Grindin' (What's The Matter With The Meal)
EXTD=
EXTT0=
EXTT1=
EXTT2=
EXTT3=
EXTT4=
EXTT5=
EXTT6=
EXTT7=
EXTT8=
EXTT9=
EXTT10=
EXTT11=
EXTT12=
EXTT13=
EXTT14=
EXTT15=
EXTT16=
EXTT17=
EXTT18=
EXTT19=
EXTT20=
EXTT21=
EXTT22=
PLAYORDER=
